<svg width="484" height="132" viewBox="0 0 484 132" fill="none" xmlns="http://www.w3.org/2000/svg">
<path d="M337.762 81.4948C339.255 81.5364 340.742 81.2808 342.135 80.743C343.529 80.2052 344.801 79.3958 345.879 78.3619L349.904 82.7384C347.246 85.4715 343.56 87.5043 337.83 87.5043C328.008 87.5043 321.664 80.9926 321.664 72.1713C321.627 70.1503 321.996 68.1425 322.75 66.267C323.503 64.3914 324.626 62.6862 326.051 61.2525C327.476 59.8187 329.174 58.6856 331.045 57.9203C332.915 57.1551 334.921 56.7731 336.942 56.7973C346.696 56.7973 352.227 64.2212 351.742 74.5116H328.681C329.501 78.7821 332.497 81.5153 337.752 81.5153M344.779 69.6055C344.151 65.6083 341.773 62.6701 337 62.6701C332.569 62.6701 329.477 65.1778 328.681 69.6055H344.779ZM186.358 81.177L204.107 63.1484H186.786V57.4566H212.341V63.2646L194.592 81.2864H212.576V86.9474H186.365L186.358 81.177ZM232.498 81.4982C233.991 81.5398 235.477 81.2842 236.871 80.7464C238.264 80.2086 239.537 79.3992 240.615 78.3653L244.647 82.7384C241.989 85.4715 238.302 87.5043 232.573 87.5043C222.751 87.5043 216.406 80.9926 216.406 72.1713C216.369 70.1503 216.739 68.1425 217.492 66.267C218.246 64.3914 219.368 62.6862 220.793 61.2525C222.218 59.8187 223.916 58.6856 225.787 57.9203C227.658 57.1551 229.663 56.7731 231.685 56.7973C241.439 56.7973 246.97 64.2212 246.485 74.5116H223.424C224.244 78.7821 227.24 81.5153 232.494 81.5153M239.522 69.6055C238.897 65.6083 236.515 62.6701 231.743 62.6701C227.311 62.6701 224.22 65.1778 223.424 69.6055H239.522ZM284.797 72.1337C284.797 62.7316 291.835 56.8109 299.59 56.8109C301.451 56.786 303.294 57.1688 304.991 57.9326C306.688 58.6963 308.197 59.8225 309.412 61.2318V43.8592H315.681V86.9064H309.412V82.8067C308.22 84.2735 306.712 85.4533 305.002 86.2588C303.292 87.0642 301.422 87.4747 299.532 87.4599C292.009 87.4599 284.8 81.5153 284.8 72.144M309.764 72.0893C309.542 63.8215 299.515 59.8926 293.707 65.8167C287.899 71.7408 292.135 81.6964 300.413 81.6929C305.798 81.6929 309.761 77.3882 309.761 72.1269M355.825 80.668L361.503 77.723C363.033 80.4562 365.944 82.1063 369.077 82.0277C372.63 82.0277 374.461 80.2034 374.461 78.1398C374.461 75.7483 371.031 75.2495 367.304 74.4842C362.289 73.4593 357.068 71.7681 357.068 65.7039C357.068 61.0473 361.499 56.746 368.479 56.8075C373.946 56.8075 378.066 58.994 380.389 62.5198L375.128 65.4101C374.399 64.3329 373.409 63.4589 372.249 62.8707C371.09 62.2825 369.799 61.9995 368.5 62.0483C365.128 62.0483 363.375 63.6985 363.375 65.5844C363.375 67.7026 366.095 68.2936 370.358 69.24C375.21 70.2649 380.71 71.8911 380.71 78.0202C380.71 82.12 377.157 87.5624 368.763 87.5043C362.613 87.5043 358.295 85.0274 355.804 80.6714M397.731 73.8385L392.76 79.2604V86.9133H386.491V43.866H392.76V72.0312L406.07 57.4191H413.706L402.165 70.0599L414 86.9099H406.904L397.731 73.8385ZM265.815 56.8588C258.36 56.8588 252.149 61.693 252.149 69.7046V86.9133H258.538V70.4391C258.538 65.6049 261.315 62.718 266.061 62.718C270.806 62.718 273.167 65.6083 273.167 70.4391V86.8518H279.522V69.6431C279.522 61.6315 273.252 56.7973 265.856 56.7973M114.9 47.8906V103.305H69L114.9 47.8906ZM114.9 28C114.901 34.0878 112.484 39.9267 108.18 44.2327C103.877 48.5387 98.0395 50.9592 91.9517 50.962C85.8639 50.9592 80.0264 48.5387 75.723 44.2327C71.4195 39.9267 69.0025 34.0878 69.0034 28H114.9ZM122.461 103.299C122.463 97.2131 124.882 91.3777 129.185 87.0747C133.488 82.7716 139.323 80.353 145.409 80.3503C151.494 80.353 157.33 82.7716 161.633 87.0747C165.936 91.3777 168.355 97.2131 168.357 103.299H122.461ZM122.461 83.408V28.0068H168.361L122.461 83.408Z" fill="white"/>
</svg>
