<svg width="484" height="132" viewBox="0 0 484 132" fill="none" xmlns="http://www.w3.org/2000/svg">
<path d="M209.025 71.4735L203.124 55.5665C202.884 54.916 201.963 54.916 201.722 55.5665L195.822 71.4745C195.78 71.5876 195.766 71.7091 195.781 71.8287C195.797 71.9484 195.841 72.0625 195.909 72.1615C195.978 72.2605 196.07 72.3413 196.177 72.3971C196.284 72.4529 196.403 72.4821 196.523 72.482H208.324C208.445 72.482 208.563 72.4528 208.67 72.3969C208.777 72.3411 208.869 72.2602 208.938 72.1611C209.007 72.0621 209.05 71.9479 209.066 71.8283C209.081 71.7086 209.067 71.5871 209.025 71.474M211.751 80.4146H193.096C192.944 80.4146 192.795 80.4613 192.67 80.5485C192.544 80.6356 192.449 80.759 192.396 80.9021L188.723 90.7998C188.67 90.9429 188.574 91.0663 188.449 91.1535C188.324 91.2406 188.175 91.2874 188.022 91.2874H179.936C179.814 91.2874 179.694 91.2574 179.586 91.2001C179.478 91.1427 179.386 91.0598 179.317 90.9586C179.249 90.8573 179.206 90.7408 179.193 90.6193C179.18 90.4978 179.197 90.3749 179.242 90.2614L197.858 43.8876C197.914 43.7491 198.01 43.6304 198.133 43.5469C198.257 43.4634 198.403 43.4188 198.552 43.419H206.294C206.6 43.419 206.874 43.6044 206.988 43.8876L225.603 90.2609C225.649 90.3744 225.666 90.4974 225.653 90.6191C225.64 90.7408 225.598 90.8574 225.529 90.9588C225.461 91.0602 225.368 91.1432 225.26 91.2006C225.152 91.2579 225.032 91.2879 224.909 91.2879H216.825C216.673 91.2878 216.524 91.241 216.398 91.1538C216.273 91.0665 216.177 90.943 216.124 90.7998L212.451 80.9021C212.398 80.759 212.302 80.6356 212.177 80.5485C212.052 80.4613 211.903 80.4146 211.75 80.4146M229.392 59.6938H236.307C236.506 59.6938 236.696 59.7726 236.836 59.9129C236.976 60.0531 237.055 60.2433 237.055 60.4416V90.5396C237.055 90.7379 236.976 90.9281 236.836 91.0684C236.696 91.2086 236.506 91.2874 236.307 91.2874H229.392C229.193 91.2874 229.003 91.2086 228.863 91.0684C228.723 90.9281 228.644 90.7379 228.644 90.5396V60.4411C228.644 60.2428 228.723 60.0526 228.863 59.9124C229.003 59.7721 229.193 59.6933 229.392 59.6933M262.276 67.0152C262.276 67.2135 262.198 67.4037 262.057 67.544C261.917 67.6842 261.727 67.763 261.529 67.763H261.319C257.9 67.763 255.392 68.5836 253.796 70.2247C252.2 71.8658 251.404 74.5788 251.404 78.3626V90.5396C251.404 90.7379 251.325 90.9281 251.184 91.0684C251.044 91.2086 250.854 91.2874 250.656 91.2874H243.808C243.61 91.2874 243.419 91.2086 243.279 91.0684C243.139 90.9281 243.06 90.7379 243.06 90.5396V60.4411C243.06 60.2428 243.139 60.0526 243.279 59.9124C243.419 59.7721 243.61 59.6933 243.808 59.6933H250.587C250.785 59.6933 250.975 59.7721 251.116 59.9124C251.256 60.0526 251.335 60.2428 251.335 60.4411V66.3945H251.472C252.292 63.9328 253.592 62.0419 255.37 60.7188C257.148 59.3972 259.336 58.7357 261.934 58.7357H262.276V67.0147V67.0152ZM281.185 66.737C280.987 66.737 280.797 66.8158 280.657 66.956C280.516 67.0963 280.438 67.2865 280.438 67.4848V80.0038C280.438 81.2805 280.687 82.1923 281.189 82.7392C281.69 83.2861 282.557 83.5598 283.788 83.5598H284.476C284.675 83.5598 284.865 83.6385 285.005 83.7788C285.145 83.919 285.224 84.1092 285.224 84.3075V90.6074C285.224 90.8057 285.145 90.9959 285.005 91.1362C284.865 91.2764 284.675 91.3552 284.476 91.3552H281.531C278.476 91.3552 276.129 90.569 274.488 88.9962C272.846 87.4233 272.026 85.0877 272.026 81.9869V67.4848C272.026 67.2865 271.947 67.0963 271.807 66.956C271.666 66.8158 271.476 66.737 271.278 66.737H266.961C266.763 66.737 266.572 66.6582 266.432 66.518C266.292 66.3778 266.213 66.1875 266.213 65.9892V60.4411C266.213 60.2428 266.292 60.0526 266.432 59.9124C266.572 59.7721 266.763 59.6933 266.961 59.6933H271.278C271.477 59.6933 271.667 59.6146 271.807 59.4743C271.947 59.3341 272.026 59.1439 272.026 58.9456V47.79C272.026 47.5917 272.105 47.4015 272.245 47.2613C272.385 47.121 272.575 47.0423 272.774 47.0423H279.689C279.888 47.0423 280.078 47.121 280.218 47.2613C280.358 47.4015 280.437 47.5917 280.437 47.79V58.9456C280.437 59.1439 280.516 59.3341 280.656 59.4743C280.796 59.6146 280.987 59.6933 281.185 59.6933H286.186C286.384 59.6933 286.574 59.7721 286.714 59.9124C286.855 60.0526 286.933 60.2428 286.933 60.4411V65.9897C286.933 66.188 286.855 66.3782 286.714 66.5185C286.574 66.6587 286.384 66.7375 286.186 66.7375H281.185V66.737ZM312.852 81.9186C314.425 80.2775 315.211 78.1348 315.211 75.4901C315.211 72.8469 314.425 70.7033 312.852 69.0621C311.279 67.421 309.216 66.6004 306.663 66.6004C304.11 66.6004 302.048 67.421 300.474 69.0621C298.902 70.7033 298.115 72.8469 298.115 75.4901C298.115 78.1348 298.902 80.2775 300.474 81.9186C302.048 83.5598 304.11 84.3803 306.663 84.3803C309.216 84.3803 311.279 83.5598 312.852 81.9186ZM296.885 90.3297C294.559 89.0081 292.724 87.0813 291.38 84.5513C290.034 82.0213 289.362 79.0012 289.362 75.4901C289.362 71.9805 290.034 68.9594 291.38 66.4294C292.724 63.8994 294.559 61.9741 296.885 60.651C299.21 59.3289 301.762 58.6679 304.543 58.6679C307.005 58.6679 309.113 59.1465 310.87 60.1036C312.623 61.0608 314.025 62.4063 315.075 64.1387H315.211V60.4411C315.211 60.2428 315.29 60.0526 315.43 59.9124C315.571 59.7721 315.761 59.6933 315.959 59.6933H322.806C323.005 59.6933 323.195 59.7721 323.335 59.9124C323.475 60.0526 323.554 60.2428 323.554 60.4411V90.5391C323.554 90.7374 323.475 90.9276 323.335 91.0679C323.195 91.2081 323.005 91.2869 322.806 91.2869H315.959C315.761 91.2869 315.571 91.2081 315.43 91.0679C315.29 90.9276 315.211 90.7374 315.211 90.5391V86.842H315.075C314.025 88.5754 312.623 89.9194 310.869 90.8766C309.113 91.8338 307.006 92.3124 304.543 92.3124C301.762 92.3124 299.21 91.6513 296.885 90.3297M352.031 81.9186C353.604 80.2775 354.39 78.1348 354.39 75.4901C354.39 72.8469 353.604 70.7033 352.031 69.0621C350.459 67.421 348.396 66.6004 345.843 66.6004C343.289 66.6004 341.227 67.421 339.654 69.0621C338.082 70.7033 337.294 72.8469 337.294 75.4901C337.294 78.1348 338.082 80.2775 339.654 81.9186C341.227 83.5598 343.289 84.3803 345.843 84.3803C348.396 84.3803 350.459 83.5598 352.031 81.9186ZM341.637 90.8766C339.882 89.9194 338.479 88.5754 337.432 86.842H337.294V90.5391C337.294 90.7374 337.216 90.9276 337.075 91.0679C336.935 91.2081 336.745 91.2869 336.547 91.2869H329.631C329.433 91.2869 329.243 91.2081 329.102 91.0679C328.962 90.9276 328.883 90.7374 328.883 90.5391V44.1653C328.883 43.9669 328.962 43.7767 329.102 43.6365C329.243 43.4963 329.433 43.4175 329.631 43.4175H336.547C336.745 43.4175 336.935 43.4963 337.075 43.6365C337.216 43.7767 337.294 43.9669 337.294 44.1653V64.1382H337.432C338.479 62.4058 339.882 61.0608 341.637 60.1036C343.392 59.146 345.501 58.6674 347.963 58.6674C350.743 58.6674 353.297 59.3284 355.622 60.6505C357.947 61.9736 359.781 63.8989 361.127 66.4284C362.471 68.9599 363.145 71.981 363.145 75.4906C363.145 79.0017 362.471 82.0213 361.127 84.5518C359.782 87.0818 357.947 89.0086 355.622 90.3297C353.297 91.6518 350.744 92.3134 347.963 92.3134C345.501 92.3134 343.392 91.8348 341.638 90.8771M374.796 91.2874H367.881C367.682 91.2874 367.492 91.2086 367.352 91.0684C367.212 90.9281 367.133 90.7379 367.133 90.5396V44.1668C367.133 43.9684 367.212 43.7782 367.352 43.638C367.492 43.4978 367.682 43.419 367.881 43.419H374.796C374.994 43.419 375.185 43.4978 375.325 43.638C375.465 43.7782 375.544 43.9684 375.544 44.1668V90.5396C375.544 90.7379 375.465 90.9281 375.325 91.0684C375.185 91.2086 374.994 91.2874 374.796 91.2874M391.109 67.0112C389.962 67.9056 389.188 69.1967 388.787 70.8857C388.677 71.3514 389.04 71.798 389.519 71.798H402.68C403.137 71.798 403.496 71.3893 403.422 70.9386C403.159 69.3408 402.474 68.0671 401.366 67.1139C400.067 65.9972 398.368 65.4389 396.272 65.4389C394.174 65.4389 392.453 65.9628 391.109 67.0112M407.965 63.0788C410.655 66.0201 412 70.1803 412 75.5589V76.4523C412 76.6506 411.921 76.8408 411.781 76.981C411.641 77.1213 411.451 77.2001 411.252 77.2001H389.265C389.156 77.2003 389.048 77.2244 388.948 77.2708C388.849 77.3171 388.761 77.3845 388.691 77.4684C388.62 77.5522 388.569 77.6504 388.54 77.7561C388.512 77.8618 388.506 77.9725 388.525 78.0805C388.876 80.0786 389.76 81.6659 391.177 82.8419C392.795 84.1879 394.836 84.8594 397.298 84.8594C400.476 84.8594 403.417 83.6191 406.122 81.1379C406.453 80.8348 406.977 80.8991 407.233 81.2675L410.595 86.0933C410.701 86.2434 410.747 86.427 410.726 86.6091C410.705 86.7913 410.617 86.9594 410.481 87.0813C408.83 88.5259 406.996 89.7448 405.025 90.7061C402.836 91.777 400.26 92.3134 397.298 92.3134C393.879 92.3134 390.891 91.6174 388.339 90.2275C385.785 88.8376 383.802 86.8774 382.39 84.3464C380.976 81.8164 380.27 78.8876 380.27 75.5589C380.27 72.2318 380.954 69.2915 382.321 66.7375C383.689 64.1851 385.604 62.2019 388.066 60.7881C390.528 59.3758 393.4 58.6684 396.682 58.6684C401.513 58.6684 405.275 60.139 407.965 63.0788M237.958 48.5668C237.958 51.3874 235.672 53.6741 232.85 53.6741C230.029 53.6741 227.742 51.3874 227.742 48.5663C227.742 45.7451 230.029 43.4584 232.85 43.4584C235.672 43.4584 237.958 45.7451 237.958 48.5663" fill="white"/>
<path d="M112.385 29.9315L79.5018 43.5378C77.6732 44.2945 77.6921 46.8923 79.5322 47.6217L112.552 60.716C115.453 61.8666 118.684 61.8666 121.585 60.716L154.606 47.6212C156.445 46.8923 156.465 44.295 154.636 43.5383L121.754 29.931C118.754 28.6897 115.384 28.6897 112.384 29.931" fill="#FCB400"/>
<path d="M119.999 67.8658V100.578C119.999 102.133 121.568 103.199 123.014 102.626L159.808 88.3438C160.219 88.1811 160.571 87.8989 160.819 87.5337C161.067 87.1685 161.199 86.7373 161.199 86.2958V53.5846C161.199 52.0287 159.63 50.9633 158.184 51.5366L121.39 65.8184C120.979 65.9812 120.628 66.2634 120.38 66.6286C120.132 66.9937 119.999 67.4249 119.999 67.8663" fill="#18BFFF"/>
<path d="M111.405 69.5531L100.486 74.8255L99.377 75.3615L76.3262 86.4063C74.8655 87.1112 73 86.0464 73 84.4232V53.721C73 53.1337 73.3011 52.6267 73.7049 52.2453C73.8706 52.0804 74.0585 51.9394 74.2633 51.8266C74.8136 51.496 75.5993 51.4078 76.2673 51.672L111.222 65.5221C112.999 66.227 113.138 68.7166 111.405 69.5536" fill="#F82B60"/>
<path d="M111.404 69.5531L100.484 74.8255L73.7033 52.2448C73.869 52.08 74.0569 51.9393 74.2617 51.8266C74.812 51.496 75.5977 51.4078 76.2657 51.672L111.22 65.5221C112.997 66.227 113.137 68.7166 111.404 69.5536" fill="black" fill-opacity="0.25"/>
</svg>
