<svg width="484" height="132" viewBox="0 0 484 132" fill="none" xmlns="http://www.w3.org/2000/svg">
<path fill-rule="evenodd" clip-rule="evenodd" d="M186.896 87.9676L190.715 79.0936C194.84 82.1781 200.335 83.7815 205.758 83.7815C209.76 83.7815 212.294 82.2393 212.294 79.9015C212.233 73.3653 188.316 78.4816 188.132 62.0923C188.071 53.7691 195.464 47.3553 205.941 47.3553C212.171 47.3553 218.389 48.8976 222.832 52.4105L219.258 61.4681C215.195 58.8732 210.14 57.0249 205.329 57.0249C202.061 57.0249 199.907 58.5672 199.907 60.5378C199.968 66.9516 224.069 63.4387 224.313 79.0936C224.313 87.6004 217.104 93.5858 206.749 93.5858C199.16 93.5735 192.196 91.7865 186.896 87.9676M333.543 75.8868C331.634 79.216 328.06 81.4927 323.922 81.4927C317.815 81.4927 312.894 76.56 312.894 70.4644C312.894 64.3689 317.827 59.4362 323.922 59.4362C328.047 59.4362 331.634 61.7128 333.543 65.0421L344.082 59.1914C340.14 52.1657 332.552 47.3553 323.922 47.3553C311.156 47.3553 300.801 57.7104 300.801 70.4767C300.801 83.243 311.156 93.598 323.922 93.598C332.613 93.598 340.14 88.8489 344.082 81.7619L333.543 75.8868ZM229.613 28.1753H242.808V92.7167H229.613V28.1753ZM349.259 28.1753V92.7167H362.454V73.3531L378.109 92.7167H395L375.086 69.7178L393.519 48.2611H377.362L362.442 66.0703V28.1753H349.259Z" fill="white"/>
<path d="M282.012 76.0093C280.102 79.155 276.161 81.4928 271.718 81.4928C265.61 81.4928 260.69 76.5601 260.69 70.4646C260.69 64.3691 265.622 59.4364 271.718 59.4364C276.161 59.4364 280.102 61.8966 282.012 65.1035V76.0093ZM282.012 48.2735V53.5122C279.858 49.8769 274.496 47.3433 268.878 47.3433C257.287 47.3433 248.168 57.5759 248.168 70.4034C248.168 83.2309 257.287 93.5859 268.878 93.5859C274.484 93.5859 279.845 91.0645 282.012 87.417V92.6557H295.206V48.2735H282.012Z" fill="white"/>
<path fill-rule="evenodd" clip-rule="evenodd" d="M105.34 75.9482C105.34 80.4525 101.705 84.0878 97.2003 84.0878C92.696 84.0878 89.0607 80.4403 89.0607 75.9482C89.0607 71.4561 92.696 67.8086 97.2003 67.8086H105.34V75.9482ZM109.404 75.9482C109.404 71.4439 113.039 67.8086 117.543 67.8086C122.047 67.8086 125.683 71.4439 125.683 75.9482V96.291C125.683 100.795 122.047 104.431 117.543 104.431C113.039 104.431 109.404 100.795 109.404 96.291V75.9482Z" fill="#E01E5A"/>
<path fill-rule="evenodd" clip-rule="evenodd" d="M117.544 43.2792C113.039 43.2792 109.404 39.6439 109.404 35.1396C109.404 30.6353 113.039 27 117.544 27C122.048 27 125.683 30.6353 125.683 35.1396V43.2792H117.544ZM117.544 47.4041C122.048 47.4041 125.683 51.0393 125.683 55.5436C125.683 60.048 122.048 63.6832 117.544 63.6832H97.1396C92.6353 63.6832 89 60.0357 89 55.5436C89 51.0516 92.6353 47.4041 97.1396 47.4041H117.544Z" fill="#36C5F0"/>
<path fill-rule="evenodd" clip-rule="evenodd" d="M150.151 55.5436C150.151 51.0393 153.786 47.4041 158.29 47.4041C162.795 47.4041 166.43 51.0393 166.43 55.5436C166.43 60.048 162.795 63.6832 158.29 63.6832H150.151V55.5436ZM146.087 55.5436C146.087 60.048 142.452 63.6832 137.947 63.6832C133.443 63.6832 129.808 60.048 129.808 55.5436V35.1396C129.808 30.6353 133.443 27 137.947 27C142.452 27 146.087 30.6353 146.087 35.1396V55.5436Z" fill="#2EB67D"/>
<path fill-rule="evenodd" clip-rule="evenodd" d="M137.947 88.1514C142.452 88.1514 146.087 91.7867 146.087 96.291C146.087 100.795 142.452 104.431 137.947 104.431C133.443 104.431 129.808 100.795 129.808 96.291V88.1514H137.947ZM137.947 84.0878C133.443 84.0878 129.808 80.4525 129.808 75.9482C129.808 71.4439 133.443 67.8086 137.947 67.8086H158.351C162.856 67.8086 166.491 71.4439 166.491 75.9482C166.491 80.4525 162.856 84.0878 158.351 84.0878H137.947Z" fill="#ECB22E"/>
</svg>
