<svg width="484" height="132" viewBox="0 0 484 132" fill="none" xmlns="http://www.w3.org/2000/svg">
<path d="M421 62.5754V56.2794H413.181V46.4916L412.918 46.5727L405.575 48.8195L405.43 48.8635V56.2798H393.839V52.1483C393.839 50.2245 394.269 48.7523 395.117 47.7705C395.959 46.8005 397.163 46.3074 398.699 46.3074C399.803 46.3074 400.946 46.5675 402.097 47.0803L402.385 47.2092V40.5787L402.249 40.5288C401.176 40.143 399.716 39.9487 397.907 39.9487C395.626 39.9487 393.554 40.445 391.747 41.4285C389.939 42.4134 388.517 43.8195 387.521 45.6071C386.528 47.3927 386.024 49.455 386.024 51.7372V56.2794H380.58V62.5754H386.024V89.0991H393.839V62.5754H405.43V79.4308C405.43 86.3726 408.704 89.8905 415.162 89.8905C416.223 89.8905 417.34 89.7661 418.48 89.5227C419.641 89.2726 420.432 89.0229 420.897 88.7563L421 88.6953V82.3412L420.682 82.5514C420.258 82.834 419.73 83.065 419.111 83.2368C418.489 83.4116 417.969 83.4993 417.567 83.4993C416.054 83.4993 414.935 83.0916 414.24 82.2872C413.538 81.4754 413.182 80.0559 413.182 78.0701V62.5754H421ZM363.127 83.5003C360.29 83.5003 358.054 82.5597 356.478 80.7069C354.892 78.8448 354.089 76.19 354.089 72.8169C354.089 69.3368 354.892 66.6131 356.479 64.718C358.056 62.8355 360.271 61.88 363.063 61.88C365.773 61.88 367.93 62.7925 369.476 64.5937C371.029 66.4042 371.817 69.1062 371.817 72.6268C371.817 76.1907 371.076 78.9283 369.614 80.7596C368.163 82.577 365.98 83.5003 363.127 83.5003M363.474 55.4888C358.063 55.4888 353.764 57.0746 350.699 60.2021C347.637 63.33 346.084 67.6586 346.084 73.0687C346.084 78.2073 347.599 82.3405 350.59 85.3517C353.58 88.3639 357.649 89.8898 362.683 89.8898C367.929 89.8898 372.142 88.2818 375.205 85.111C378.269 81.9436 379.82 77.6559 379.82 72.3722C379.82 67.1533 378.364 62.9892 375.491 59.9981C372.616 57.0057 368.572 55.4888 363.474 55.4888M333.483 55.4888C329.802 55.4888 326.757 56.4304 324.43 58.287C322.09 60.1547 320.903 62.6041 320.903 65.5682C320.903 67.109 321.159 68.4776 321.663 69.6384C322.171 70.8031 322.956 71.8285 323.999 72.6891C325.034 73.5428 326.632 74.437 328.749 75.3467C330.529 76.0792 331.857 76.6987 332.7 77.187C333.524 77.6656 334.109 78.1467 334.44 78.6152C334.761 79.0737 334.923 79.7012 334.923 80.4756C334.923 82.6806 333.272 83.7535 329.875 83.7535C328.614 83.7535 327.177 83.4903 325.602 82.9715C324.039 82.4605 322.563 81.7123 321.227 80.753L320.902 80.5203V88.0446L321.021 88.1C322.127 88.6105 323.521 89.041 325.165 89.3796C326.805 89.7187 328.295 89.8911 329.589 89.8911C333.584 89.8911 336.801 88.945 339.148 87.0774C341.511 85.1969 342.708 82.6896 342.708 79.623C342.708 77.4107 342.063 75.5136 340.793 73.9836C339.531 72.4661 337.342 71.0729 334.288 69.8414C331.854 68.8648 330.296 68.0541 329.652 67.4317C329.033 66.8305 328.718 65.9803 328.718 64.9037C328.718 63.9492 329.106 63.1846 329.904 62.5654C330.708 61.943 331.827 61.6265 333.23 61.6265C334.532 61.6265 335.864 61.8322 337.189 62.2353C338.513 62.6384 339.676 63.1783 340.647 63.8388L340.966 64.0569V56.9194L340.844 56.8668C339.948 56.4827 338.767 56.1541 337.333 55.8874C335.905 55.6225 334.61 55.4888 333.483 55.4888M300.529 83.5003C297.693 83.5003 295.456 82.5597 293.88 80.7069C292.294 78.8448 291.492 76.1907 291.492 72.8169C291.492 69.3368 292.295 66.6131 293.882 64.718C295.458 62.8355 297.672 61.88 300.466 61.88C303.175 61.88 305.332 62.7925 306.878 64.5937C308.431 66.4042 309.219 69.1062 309.219 72.6268C309.219 76.1907 308.478 78.9283 307.016 80.7596C305.565 82.577 303.383 83.5003 300.529 83.5003M300.877 55.4888C295.464 55.4888 291.165 57.0746 288.102 60.2021C285.039 63.33 283.486 67.6586 283.486 73.0687C283.486 78.2093 285.002 82.3405 287.993 85.3517C290.983 88.3639 295.051 89.8898 300.086 89.8898C305.331 89.8898 309.545 88.2818 312.608 85.111C315.671 81.9436 317.223 77.6559 317.223 72.3722C317.223 67.1533 315.767 62.9892 312.893 59.9981C310.017 57.0057 305.974 55.4888 300.877 55.4888M271.622 61.9631V56.2794H263.902V89.0984H271.622V72.3102C271.622 69.4556 272.27 67.1104 273.547 65.339C274.808 63.5887 276.488 62.7018 278.54 62.7018C279.235 62.7018 280.016 62.8164 280.861 63.0433C281.698 63.2687 282.304 63.5136 282.661 63.7712L282.986 64.0064V56.2233L282.86 56.1697C282.142 55.8642 281.124 55.7101 279.838 55.7101C277.897 55.7101 276.161 56.3335 274.674 57.5608C273.369 58.6396 272.426 60.1187 271.704 61.9631H271.622ZM250.077 55.4888C246.535 55.4888 243.376 56.2483 240.689 57.7454C237.997 59.246 235.914 61.3882 234.498 64.1123C233.087 66.8299 232.371 70.0042 232.371 73.5442C232.371 76.645 233.065 79.4907 234.438 81.9987C235.811 84.5108 237.754 86.4762 240.215 87.8392C242.671 89.2006 245.511 89.8908 248.655 89.8908C252.323 89.8908 255.456 89.1573 257.967 87.7108L258.069 87.6526V80.5798L257.744 80.8167C256.607 81.6454 255.335 82.3069 253.967 82.7834C252.603 83.2596 251.359 83.5003 250.268 83.5003C247.239 83.5003 244.807 82.5524 243.042 80.6837C241.273 78.8126 240.376 76.1851 240.376 72.8789C240.376 69.5519 241.311 66.8569 243.155 64.8683C244.993 62.8857 247.429 61.88 250.395 61.88C252.933 61.88 255.406 62.7392 257.745 64.4361L258.069 64.6713V57.219L257.964 57.1601C257.084 56.6673 255.883 56.2604 254.393 55.9518C252.908 55.644 251.457 55.4888 250.077 55.4888M227.054 56.2798H219.334V89.0984H227.054V56.2798V56.2798ZM223.273 42.2988C222.002 42.2988 220.894 42.7314 219.984 43.5885C219.069 44.448 218.606 45.5302 218.606 46.8074C218.606 48.0646 219.064 49.1271 219.969 49.9637C220.869 50.798 221.981 51.2209 223.273 51.2209C224.565 51.2209 225.681 50.798 226.592 49.9651C227.508 49.1271 227.973 48.0649 227.973 46.8074C227.973 45.5749 227.52 44.5038 226.629 43.6231C225.739 42.7442 224.609 42.2988 223.273 42.2988ZM204.011 53.8584V89.0984H211.89V43.3035H200.985L187.125 77.3186L173.675 43.3035H162.326V89.0981H169.73V53.8549H169.984L184.188 89.0984H189.775L203.757 53.8584H204.011V53.8584Z" fill="white"/>
<path d="M99.3171 64.3171H63V28H99.3171V64.3171Z" fill="#F1511B"/>
<path d="M139.416 64.3171H103.099V28H139.416V64.3171Z" fill="#80CC28"/>
<path d="M99.3161 104.43H63V68.1133H99.3161V104.43Z" fill="#00ADEF"/>
<path d="M139.416 104.43H103.099V68.1133H139.416V104.43Z" fill="#FBBC09"/>
</svg>
