<svg width="484" height="132" viewBox="0 0 484 132" fill="none" xmlns="http://www.w3.org/2000/svg">
<path d="M96.0988 43.0741L74.0494 57.1482L96.0988 71.2222L74.0494 85.2963L52 71.105L74.0494 57.0309L52 43.0741L74.0494 29L96.0988 43.0741ZM73.9321 89.7531L95.9815 75.679L118.031 89.7531L95.9815 103.827L73.9321 89.7531ZM96.0988 71.105L118.148 57.0309L96.0988 43.0741L118.031 29L140.08 43.0741L118.031 57.1482L140.08 71.2222L118.031 85.2963L96.0988 71.105Z" fill="#0061FF"/>
<path d="M157.321 43.0741H175.148C186.524 43.0741 195.907 49.642 195.907 64.6544V67.8211C195.907 82.9507 187.111 89.7532 175.5 89.7532H157.321V43.0741ZM167.29 51.5186V81.1914H174.913C181.364 81.1914 185.703 76.9692 185.703 67.5865V65.1235C185.703 55.7408 181.129 51.5186 174.561 51.5186H167.29ZM201.185 51.9877H209.16L210.45 60.784C211.975 54.8025 215.845 51.6359 222.883 51.6359H225.345V61.7223H221.241C213.148 61.7223 211.154 64.5371 211.154 72.5124V89.8705H201.302V51.9877H201.185ZM227.339 71.6914V70.6359C227.339 57.9692 235.432 51.0494 246.457 51.0494C257.716 51.0494 265.574 57.9692 265.574 70.6359V71.6914C265.574 84.1235 257.95 90.8087 246.457 90.8087C234.259 90.6914 227.339 84.1235 227.339 71.6914V71.6914ZM255.487 71.5742V70.6359C255.487 63.5988 251.969 59.3766 246.339 59.3766C240.827 59.3766 237.191 63.247 237.191 70.6359V71.5742C237.191 78.3766 240.71 82.247 246.339 82.247C251.969 82.1297 255.487 78.3766 255.487 71.5742ZM270.734 51.9877H278.944L279.883 59.142C281.876 54.3334 286.099 51.0494 292.315 51.0494C301.932 51.0494 308.265 57.9692 308.265 70.7532V71.8087C308.265 84.2408 301.228 90.8087 292.315 90.8087C286.333 90.8087 282.228 88.1112 280.234 83.7717V102.889H270.617L270.734 51.9877ZM298.296 71.5742V70.7532C298.296 63.247 294.426 59.4939 289.265 59.4939C283.753 59.4939 280.117 63.7161 280.117 70.7532V71.4569C280.117 78.1421 283.636 82.3643 289.148 82.3643C294.778 82.247 298.296 78.6112 298.296 71.5742ZM322.809 82.8334L321.988 89.7532H313.543V39.321H323.16V58.6729C325.271 53.747 329.494 51.0494 335.475 51.0494C344.506 51.1667 351.191 57.3828 351.191 69.9322V71.105C351.191 83.6544 344.858 90.8087 335.241 90.8087C328.907 90.6914 324.802 87.7593 322.809 82.8334V82.8334ZM341.105 71.105V70.1667C341.105 63.247 337.352 59.3766 332.074 59.3766C326.679 59.3766 322.926 63.7161 322.926 70.284V71.105C322.926 78.1421 326.562 82.247 331.957 82.247C337.704 82.247 341.105 78.6112 341.105 71.105V71.105ZM355.414 71.6914V70.6359C355.414 57.9692 363.506 51.0494 374.531 51.0494C385.79 51.0494 393.648 57.9692 393.648 70.6359V71.6914C393.648 84.1235 385.907 90.8087 374.531 90.8087C362.333 90.6914 355.414 84.1235 355.414 71.6914V71.6914ZM383.679 71.5742V70.6359C383.679 63.5988 380.16 59.3766 374.531 59.3766C369.018 59.3766 365.383 63.247 365.383 70.6359V71.5742C365.383 78.3766 368.901 82.247 374.531 82.247C380.16 82.1297 383.679 78.3766 383.679 71.5742ZM406.549 70.1667L393.296 51.9877H404.673L412.296 63.3643L420.037 51.9877H431.296L417.809 70.0495L432 89.7532H420.858L412.179 77.2038L403.735 89.7532H392.123L406.549 70.1667Z" fill="white"/>
</svg>
