<svg width="484" height="132" viewBox="0 0 484 132" fill="none" xmlns="http://www.w3.org/2000/svg">
<path fill-rule="evenodd" clip-rule="evenodd" d="M173.206 84.3018C172.006 83.8434 171.222 82.8768 171.222 81.588C171.222 80.0252 172.513 78.7382 174.083 78.7382C174.545 78.7382 174.913 78.8294 175.236 78.9674C177.268 79.8874 179.436 80.4388 182.067 80.4388C186.867 80.4388 189.128 78.1402 189.128 73.7241V72.5283C187.05 75.013 184.79 76.5291 181.052 76.5291C175.283 76.5291 170.067 72.3439 170.067 65.0315V64.9401C170.067 57.581 175.375 53.4424 181.052 53.4424C184.882 53.4424 187.143 55.0516 189.035 57.121V57.0744C189.035 55.1894 190.605 53.6266 192.543 53.6266C194.481 53.6266 196.049 55.1894 196.049 57.121V72.9883C196.049 77.4043 194.989 80.6232 192.911 82.6924C190.605 84.9926 187.05 86.0043 182.252 86.0043C178.974 86.0043 176.113 85.4529 173.206 84.3018V84.3018ZM189.128 65.0315V64.9401C189.128 61.5818 186.497 59.2368 183.082 59.2368C179.667 59.2368 177.083 61.5818 177.083 64.9401V65.0315C177.083 68.4345 179.667 70.7347 183.082 70.7347C186.497 70.7347 189.128 68.3895 189.128 65.0315ZM200.021 57.121C200.021 55.1894 201.589 53.6266 203.528 53.6266C205.467 53.6266 207.035 55.1894 207.035 57.121V58.2238C208.051 55.8338 209.711 53.6266 211.789 53.6266C213.959 53.6266 215.204 55.0516 215.204 57.028C215.204 58.8682 214.004 59.9726 212.574 60.2949C209.02 61.1234 207.035 63.8357 207.035 68.8031V75.3333C207.035 77.265 205.467 78.8294 203.528 78.8294C201.589 78.8294 200.021 77.265 200.021 75.3333V57.121V57.121ZM214.374 71.4703V71.3792C214.374 65.9981 218.48 63.5135 224.343 63.5135C226.835 63.5135 228.634 63.9271 230.389 64.5249V64.1112C230.389 61.2148 228.588 59.6038 225.081 59.6038C223.143 59.6038 221.573 59.8812 220.235 60.2949C219.82 60.4326 219.544 60.4793 219.22 60.4793C217.605 60.4793 216.312 59.2368 216.312 57.6258C216.312 56.3852 217.095 55.3274 218.205 54.9122C220.42 54.085 222.82 53.6266 226.096 53.6266C229.926 53.6266 232.696 54.638 234.449 56.3852C236.295 58.2238 237.127 60.9393 237.127 64.2509V75.4714C237.127 77.358 235.604 78.8294 233.711 78.8294C231.681 78.8294 230.342 77.4044 230.342 75.9314V75.8847C228.634 77.7716 226.281 79.0122 222.865 79.0122C218.205 79.0122 214.374 76.3466 214.374 71.4703V71.4703ZM230.481 69.8611V68.6187C229.281 68.0673 227.713 67.6987 226.003 67.6987C223.003 67.6987 221.158 68.8945 221.158 71.1033V71.1947C221.158 73.0813 222.728 74.1841 224.988 74.1841C228.266 74.1841 230.481 72.3905 230.481 69.8611V69.8611ZM240.867 57.121C240.867 55.1894 242.435 53.6266 244.375 53.6266C246.313 53.6266 247.882 55.1894 247.882 57.121V57.3985C249.496 55.3274 251.621 53.4424 255.173 53.4424C258.403 53.4424 260.85 54.8672 262.141 57.3518C264.311 54.8224 266.896 53.4424 270.264 53.4424C275.48 53.4424 278.618 56.5696 278.618 62.5037V75.3333C278.618 77.265 277.048 78.8294 275.11 78.8294C273.172 78.8294 271.602 77.265 271.602 75.3333V64.8023C271.602 61.4907 270.125 59.7882 267.496 59.7882C264.864 59.7882 263.249 61.4907 263.249 64.8023V75.3333C263.249 77.265 261.681 78.8294 259.741 78.8294C257.803 78.8294 256.233 77.265 256.233 75.3333V64.8023C256.233 61.4907 254.759 59.7882 252.127 59.7882C249.496 59.7882 247.882 61.4907 247.882 64.8023V75.3333C247.882 77.265 246.313 78.8294 244.375 78.8294C242.435 78.8294 240.867 77.265 240.867 75.3333V57.121V57.121ZM282.404 57.121C282.404 55.1894 283.972 53.6266 285.912 53.6266C287.85 53.6266 289.42 55.1894 289.42 57.121V57.3985C291.033 55.3274 293.158 53.4424 296.711 53.4424C299.941 53.4424 302.387 54.8672 303.679 57.3518C305.849 54.8224 308.433 53.4424 311.801 53.4424C317.017 53.4424 320.156 56.5696 320.156 62.5037V75.3333C320.156 77.265 318.587 78.8294 316.647 78.8294C314.709 78.8294 313.14 77.265 313.14 75.3333V64.8023C313.14 61.4907 311.663 59.7882 309.033 59.7882C306.402 59.7882 304.787 61.4907 304.787 64.8023V75.3333C304.787 77.265 303.219 78.8294 301.279 78.8294C299.341 78.8294 297.773 77.265 297.773 75.3333V64.8023C297.773 61.4907 296.296 59.7882 293.665 59.7882C291.033 59.7882 289.42 61.4907 289.42 64.8023V75.3333C289.42 77.265 287.85 78.8294 285.912 78.8294C283.972 78.8294 282.404 77.265 282.404 75.3333V57.121V57.121ZM322.465 71.4703V71.3792C322.465 65.9981 326.573 63.5135 332.433 63.5135C334.926 63.5135 336.726 63.9271 338.479 64.5249V64.1112C338.479 61.2148 336.681 59.6038 333.171 59.6038C331.233 59.6038 329.665 59.8812 328.326 60.2949C327.911 60.4326 327.635 60.4793 327.311 60.4793C325.695 60.4793 324.404 59.2368 324.404 57.6258C324.404 56.3852 325.188 55.3274 326.295 54.9122C328.512 54.085 330.911 53.6266 334.187 53.6266C338.019 53.6266 340.787 54.638 342.541 56.3852C344.386 58.2238 345.217 60.9393 345.217 64.2509V75.4714C345.217 77.358 343.694 78.8294 341.804 78.8294C339.772 78.8294 338.434 77.4044 338.434 75.9314V75.8847C336.726 77.7716 334.371 79.0122 330.958 79.0122C326.295 79.0122 322.465 76.3466 322.465 71.4703V71.4703ZM338.572 69.8611V68.6187C337.372 68.0673 335.803 67.6987 334.096 67.6987C331.095 67.6987 329.25 68.8945 329.25 71.1033V71.1947C329.25 73.0813 330.818 74.1841 333.079 74.1841C336.356 74.1841 338.572 72.3905 338.572 69.8611ZM348.956 57.121C348.956 55.1894 350.527 53.6266 352.465 53.6266C354.403 53.6266 355.971 55.1894 355.971 57.121V58.2238C356.987 55.8338 358.649 53.6266 360.726 53.6266C362.895 53.6266 364.139 55.0516 364.139 57.028C364.139 58.8682 362.941 59.9726 361.509 60.2949C357.957 61.1234 355.971 63.8357 355.971 68.8031V75.3333C355.971 77.265 354.403 78.8294 352.465 78.8294C350.527 78.8294 348.956 77.265 348.956 75.3333V57.121V57.121ZM366.265 48.1976C366.265 46.2659 367.833 44.7031 369.771 44.7031C371.712 44.7031 373.28 46.2659 373.28 48.1976V75.3333C373.28 77.265 371.712 78.8294 369.771 78.8294C367.833 78.8294 366.265 77.265 366.265 75.3333V48.1976V48.1976ZM378.866 85.4062C377.848 85.0392 376.649 84.2104 376.649 82.5098C376.649 80.8074 377.987 79.6566 379.418 79.6566C379.971 79.6566 380.295 79.7496 380.571 79.8408C381.171 80.0252 381.541 80.1182 382.051 80.1182C383.294 80.1182 383.895 79.8874 384.541 78.6452L384.771 78.0938L376.328 58.5924C376.143 58.1324 375.958 57.4432 375.958 56.9832C375.958 55.0052 377.48 53.6266 379.418 53.6266C381.171 53.6266 382.187 54.5916 382.785 56.2458L388.141 70.5967L393.309 56.2922C393.864 54.8224 394.877 53.6266 396.679 53.6266C398.477 53.6266 400 55.0052 400 56.8452C400 57.3985 399.815 58.1791 399.678 58.5013L391.047 79.1516C388.969 84.164 386.895 86.0506 382.694 86.0506C381.126 86.0506 380.019 85.8214 378.866 85.4062V85.4062Z" fill="white"/>
<path d="M112.199 28C91.1028 28 74 45.1014 74 66.1986H150.397C150.397 45.1014 133.296 28 112.199 28Z" fill="#2BB673"/>
<path d="M112.198 104.398C133.296 104.398 150.397 87.2953 150.397 66.1995H73.9999C73.9999 87.2953 91.1027 104.398 112.198 104.398Z" fill="#2BB673"/>
<g filter="url(#filter0_d_2391_1301)">
<path fill-rule="evenodd" clip-rule="evenodd" d="M119.735 71.3773C119.354 71.3773 118.978 71.4615 118.633 71.6237C118.114 71.8682 117.691 72.2782 117.43 72.7893C117.168 73.3005 117.084 73.8839 117.191 74.4479C117.416 75.6984 118.592 76.5549 119.863 76.5549H123.865L126.185 76.2295C122.473 81.6759 116.028 84.1812 108.981 83.0755C103.245 82.1743 98.3212 78.2946 96.2319 72.8739C91.517 60.568 100.504 48.8192 112.214 48.8192C118.319 48.8192 123.669 52.3927 126.739 56.7066V56.8005C127.125 57.3693 127.722 57.7617 128.397 57.8921C129.072 58.0224 129.772 57.8799 130.342 57.4958C130.873 57.1286 131.246 56.5738 131.384 55.9431C131.522 55.3124 131.417 54.6527 131.088 54.0968H131.108C128.939 50.7006 125.895 47.9519 122.296 46.14C118.697 44.3281 114.676 43.5202 110.656 43.8011C99.4955 44.553 90.4576 53.6926 89.8159 64.8656C89.0699 77.8695 99.3851 88.4873 112.214 88.4873C115.416 88.4999 118.583 87.8198 121.497 86.4937C124.411 85.1675 127.004 83.2268 129.098 80.8045L128.611 83.5306V85.9925C128.611 87.261 129.466 88.4383 130.718 88.6635C131.093 88.7342 131.478 88.7215 131.847 88.6263C132.216 88.531 132.559 88.3556 132.852 88.1125C133.145 87.8694 133.381 87.5646 133.543 87.2199C133.705 86.8751 133.789 86.4989 133.789 86.118V71.3773H119.735Z" fill="white"/>
</g>
<defs>
<filter id="filter0_d_2391_1301" x="88.7056" y="43.7466" width="46.1557" height="47.9106" filterUnits="userSpaceOnUse" color-interpolation-filters="sRGB">
<feFlood flood-opacity="0" result="BackgroundImageFix"/>
<feColorMatrix in="SourceAlpha" type="matrix" values="0 0 0 0 0 0 0 0 0 0 0 0 0 0 0 0 0 0 127 0" result="hardAlpha"/>
<feOffset dy="1.87642"/>
<feGaussianBlur stdDeviation="0.536121"/>
<feColorMatrix type="matrix" values="0 0 0 0 0 0 0 0 0 0 0 0 0 0 0 0 0 0 0.15 0"/>
<feBlend mode="normal" in2="BackgroundImageFix" result="effect1_dropShadow_2391_1301"/>
<feBlend mode="normal" in="SourceGraphic" in2="effect1_dropShadow_2391_1301" result="shape"/>
</filter>
</defs>
</svg>
