<svg width="484" height="132" viewBox="0 0 484 132" fill="none" xmlns="http://www.w3.org/2000/svg">
<path d="M122.874 24.7826C123.491 24.7826 123.8 25.0912 124.417 25.3999C120.713 26.9429 117.01 30.955 115.158 39.5963L108.369 41.448C110.529 35.2756 114.85 24.7826 122.874 24.7826ZM126.269 27.8688C126.886 29.7205 127.503 31.8808 127.503 35.2756C127.503 35.5842 127.503 35.5842 127.503 35.8928L118.553 38.3618C120.405 31.8808 123.491 29.1033 126.269 27.8688ZM134.293 33.4239L130.281 34.6584C130.281 34.3498 130.281 34.0411 130.281 33.7325C130.281 30.955 129.972 28.7946 129.355 26.9429C131.515 27.5602 133.367 30.3377 134.293 33.4239ZM154.353 38.3618C154.353 38.0532 154.044 37.7445 153.735 37.7445C153.118 37.7445 146.637 37.1273 146.637 37.1273C146.637 37.1273 142.008 32.498 141.391 32.1894C140.774 31.5722 139.848 31.8808 139.539 31.8808C139.539 31.8808 138.613 32.1894 137.07 32.8067C135.527 28.486 132.75 24.474 128.12 24.474H127.812C126.577 22.6223 124.725 22.0051 123.182 22.0051C112.072 21.6964 106.826 35.5842 104.974 42.6824C102.505 43.2997 100.036 44.2255 97.2585 45.1514C94.7896 45.7686 94.7896 46.0772 94.481 48.2375C94.1723 49.7806 88 98.5422 88 98.5422L137.07 107.801L163.611 101.937C163.611 101.937 154.353 38.979 154.353 38.3618Z" fill="#8DB849"/>
<path d="M153.423 37.7446C153.114 37.7446 146.633 37.1274 146.633 37.1274C146.633 37.1274 142.004 32.4981 141.387 32.1895C141.078 31.8809 141.078 31.8809 140.769 31.8809L137.066 107.801L163.607 101.937C163.607 101.937 154.349 38.9791 154.349 38.3618C154.349 38.0532 153.731 37.7446 153.423 37.7446Z" fill="#5A863E"/>
<path d="M128.119 52.558L124.724 62.4337C124.724 62.4337 121.946 60.8907 118.243 60.8907C112.996 60.8907 112.688 63.9768 112.688 64.9027C112.688 69.2233 124.415 71.075 124.415 81.568C124.415 89.9007 119.169 95.1472 112.07 95.1472C103.738 95.1472 99.4171 89.9007 99.4171 89.9007L101.577 82.4939C101.577 82.4939 105.898 86.1973 109.601 86.1973C112.07 86.1973 112.996 84.3456 112.996 82.8025C112.996 76.9388 103.429 76.6301 103.429 67.063C103.429 59.039 109.293 51.3235 120.712 51.3235C125.958 51.0149 128.119 52.558 128.119 52.558Z" fill="#FFFFFE"/>
<path d="M194.781 70.7671C192.004 69.224 190.769 67.9896 190.769 66.4465C190.769 64.2861 192.621 63.0517 195.707 63.0517C199.102 63.0517 202.188 64.5948 202.188 64.5948L204.657 57.1879C204.657 57.1879 202.497 55.3362 196.016 55.3362C186.757 55.3362 180.585 60.5827 180.585 67.9896C180.585 72.3102 183.671 75.3964 187.375 77.5567C190.461 79.4084 191.695 80.6429 191.695 82.4946C191.695 84.3463 190.152 86.198 187.066 86.198C182.745 86.198 178.425 84.0377 178.425 84.0377L175.956 91.4445C175.956 91.4445 179.659 93.9134 186.14 93.9134C195.399 93.9134 202.188 89.2842 202.188 80.9515C202.188 76.3222 198.793 72.9274 194.781 70.7671ZM232.124 55.0276C227.495 55.0276 223.791 57.1879 221.014 60.5827L225.026 39.5968H214.533L204.349 92.9876H214.842L218.236 74.7791C219.471 67.9896 223.174 63.6689 226.569 63.6689C229.038 63.6689 229.964 65.212 229.964 67.6809C229.964 69.224 229.964 70.7671 229.655 72.3102L225.643 93.2962H236.136L240.148 71.693C240.457 69.5326 240.765 66.7551 240.765 64.9034C240.765 58.731 237.679 55.0276 232.124 55.0276ZM258.974 85.5807C255.27 85.5807 254.036 82.4946 254.036 78.7912C254.036 72.9274 257.122 63.0517 262.677 63.0517C266.381 63.0517 267.615 66.1378 267.615 69.224C267.615 76.0136 264.529 85.5807 258.974 85.5807ZM264.22 55.0276C251.567 55.0276 243.234 66.4465 243.234 79.0998C243.234 87.1238 248.172 93.6048 257.739 93.6048C270.084 93.6048 278.417 82.4946 278.417 69.5326C278.417 62.1258 274.096 55.0276 264.22 55.0276ZM295.082 85.8894C292.305 85.8894 290.761 84.3463 290.761 84.3463L292.613 74.4705C293.848 67.9896 297.242 63.6689 300.946 63.6689C304.032 63.6689 305.266 66.7551 305.266 69.5326C304.958 76.3222 300.946 85.8894 295.082 85.8894ZM305.266 55.0276C298.168 55.0276 294.156 61.2 294.156 61.2L294.774 55.6449H285.515C285.206 59.3483 284.281 65.212 283.355 69.5326L275.948 107.801H286.441L289.218 92.3703H289.527C289.527 92.3703 291.687 93.6048 295.699 93.6048C308.044 93.6048 316.068 80.9515 316.068 68.2982C316.068 61.5086 312.982 55.0276 305.266 55.0276ZM330.882 40.214C327.487 40.214 325.018 42.9915 325.018 46.3863C325.018 49.4725 326.87 51.6328 329.956 51.6328C333.351 51.6328 336.128 49.4725 336.128 45.4605C336.128 42.3743 333.968 40.214 330.882 40.214ZM316.377 92.9876H326.87L333.968 55.9535H323.475L316.377 92.9876ZM360.509 55.9535H353.102L353.411 54.1018C354.028 50.3984 356.188 47.3122 359.583 47.3122C361.435 47.3122 362.978 47.9294 362.978 47.9294L365.138 39.5968C365.138 39.5968 363.287 38.6709 359.583 38.6709C355.88 38.6709 352.176 39.5968 349.399 42.0657C345.695 45.1519 344.152 49.4725 343.226 53.7932L342.918 55.6449H337.98L336.437 63.6689H341.375L335.82 92.9876H346.313L351.868 63.6689H358.966L360.509 55.9535ZM385.507 55.9535C385.507 55.9535 379.026 72.3102 375.94 81.2601C375.631 78.4825 373.471 55.9535 373.471 55.9535H362.361L368.533 89.9014C368.533 90.5186 368.533 91.1359 368.224 91.7531C366.99 94.222 364.83 96.3824 362.669 97.9254C360.818 99.4685 358.349 100.394 356.806 101.012L359.583 109.962C361.743 109.653 366.064 107.801 369.768 104.406C374.397 100.086 379.026 92.9876 383.347 83.729L396 56.2621L385.507 55.9535Z" fill="white"/>
</svg>
